PathFileType	4	(X/Y/Z)	Patient4_TMGait_0pt3_03_left_08.trc.trc
DataRate	CameraRate	NumFrames	NumMarkers	Units	OrigDataRate	OrigDataStartFrame	OrigNumFrames
51.660516605166	51.660516605166	4	33	mm	51.660516605166	124	       141
Frame#	Time	Sacral			L.Shoulder			Chest			R.Shoulder			Neck			R.ASIS			L.ASIS			R.Thigh.Superior			R.Thigh.Lateral			R.Thigh.Inferior			R.Patella			L.Thigh.Superior			L.Thigh.Lateral			L.Thigh.Inferior			L.Patella			L.Shank.Superior			L.Shank.Lateral			L.Shank.Inferior			R.Shank.Superior			R.Shank.Lateral			R.Shank.Inferior			R.Heel			R.Midfoot.Superior			R.Midfoot.Lateral			R.Toe			L.Heel			L.Midfoot.Lateral			L.Midfoot.Superior			L.Toe			L.Elbow			L.Wrist			R.Elbow			R.Wrist			
		X1	Y1	Z1	X2	Y2	Z2	X3	Y3	Z3	X4	Y4	Z4	X5	Y5	Z5	X6	Y6	Z6	X7	Y7	Z7	X8	Y8	Z8	X9	Y9	Z9	X10	Y10	Z10	X11	Y11	Z11	X12	Y12	Z12	X13	Y13	Z13	X14	Y14	Z14	X15	Y15	Z15	X16	Y16	Z16	X17	Y17	Z17	X18	Y18	Z18	X19	Y19	Z19	X20	Y20	Z20	X21	Y21	Z21	X22	Y22	Z22	X23	Y23	Z23	X24	Y24	Z24	X25	Y25	Z25	X26	Y26	Z26	X27	Y27	Z27	X28	Y28	Z28	X29	Y29	Z29	X30	Y30	Z30	X31	Y31	Z31	X32	Y32	Z32	X33	Y33	Z33	

124	16.490928571429	760.425899938930	1002.319154316002	588.020657469430	905.751964600092	1429.933655642127	378.152411857420	1040.693190937995	1356.311275782944	511.025302051474	1002.087199822079	1433.184102150728	697.566223510122	924.071536019114	1487.999568940632	535.151920723431	1003.775569620214	928.565854889236	657.495646716430	942.405867855917	958.978568373619	390.866913714127	1009.300487472725	720.620627453788	617.742891312902	920.586005507075	615.420849311731	682.422807624895	977.755455797146	559.868460262941	591.749734650625	963.994828228370	469.459511310232	594.726098003809	1013.373985831897	763.905126671700	410.480234454208	945.865924123451	637.978615763528	340.610964791550	1046.612326008401	572.778665503960	397.060477405405	1068.488339604367	512.843519334774	395.361382903592	1056.035464054294	443.961227732724	382.530775254061	999.669645346282	311.767653083603	326.631826608301	1093.768718645477	217.269568380565	379.106460368086	918.664141684390	386.369786547893	600.652893460912	833.396064642758	292.800277678850	662.211393565321	852.987662441609	196.750465695340	591.764052062775	694.357172975887	44.370789382184	556.628917954221	865.398396772646	94.914944684663	596.409463674586	775.197552080919	36.996861246227	633.356433959331	983.769331959114	40.666160394052	629.348422215096	1019.312518176252	36.411536922128	410.904438407068	1095.190952726796	44.211807345888	332.824815049336	1163.643252252726	122.108105864981	357.784137353486	1298.335484624239	95.994867985473	334.067475240418	734.707047223210	1119.881799037310	306.321928940903	684.111040378026	865.031933139209	346.992655618594	1176.770207356628	1142.185083162521	805.727218391915	1422.840301318055	1182.024490382858	747.907324540333	
125	16.510285714286	761.088741771203	1001.131871631880	586.203565966481	905.788889813620	1428.388821639096	375.118876394339	1040.969173566612	1355.081898319415	508.058147569956	1002.350002353608	1432.362989220140	694.371085455382	924.132033114909	1486.840417167108	532.020975876502	1004.553524341005	927.614994037343	655.888141618723	942.980582103508	957.268160617437	389.243539180811	1009.282676836464	719.396874120239	616.668609568513	919.571636129262	614.660569576938	681.300053202405	976.401503715861	558.598505833196	590.938588851333	961.817939482337	468.072252431673	593.966473114104	1013.366812954726	761.343470337922	408.795371372779	944.004348027143	635.534956357329	340.127876553423	1044.719007537498	570.361997175743	396.314186789850	1065.808325377765	510.352132593498	395.030067138523	1053.547274737917	441.350905832370	382.258163206295	996.472427269757	309.275442173580	327.238840304172	1090.363509347064	214.695227106688	379.720208325112	915.754811648296	385.369623550492	599.943445046288	829.705905151269	292.643302816582	661.854044289299	848.285989644332	196.300081264974	591.510080259360	688.613731603802	44.538580635514	556.663997970638	859.653309219034	94.835134952402	596.322339201960	769.461381990271	37.000399343961	633.357148990838	978.024667623731	40.531443904020	629.394782438741	1014.383345533939	35.989652062009	412.282859871272	1089.910402659088	42.607259029114	333.762807665239	1160.160998315201	118.424736165282	358.952546693527	1294.032915522939	89.300923095031	334.343531629757	735.785615773164	1117.617370322271	304.781840867483	685.075178271280	862.861301062980	346.808339804332	1181.134008302915	1144.359694559295	801.668517259126	1425.401593037175	1190.671418765287	741.583099878269	
126	16.529642857143	761.907785258309	999.968590005999	584.210013723572	905.956057946251	1426.785900515341	371.873039117221	1041.381416099219	1353.890383979457	504.910570631713	1002.718491927876	1431.590333274532	691.010953741911	924.306984900862	1485.701751607074	528.651188287788	1005.501282331266	926.650398150310	654.089796932503	943.758279124159	955.688700689106	387.438405931097	1009.503914428644	718.160532510915	615.384998383101	918.841002312135	613.880645004718	679.966650205432	975.343206987297	557.315278717231	589.898473157022	959.980480811750	466.639772309176	592.993052866064	1013.958870431469	759.276963851054	407.165917987404	943.348038302312	633.519365291835	339.443661573956	1044.014669319003	568.524026259303	395.555423977803	1064.315747914893	508.205786811161	394.607862486786	1052.149082882266	438.950453035500	381.877417602293	994.004104995935	307.192806244986	327.492743973435	1087.180507210016	212.124160035837	380.140162721001	913.074105110651	384.345238229524	599.059667294969	826.212913012344	292.552059789071	661.374818423494	843.708767932987	195.886438130276	591.195210471187	682.903265538457	44.819709574734	556.721151569036	853.990554290418	94.819254517146	596.287726028849	763.767005696761	37.062343537194	633.367852228753	972.318602216817	40.371989804580	629.445137523789	1008.828149082286	35.865391140593	413.317330733960	1084.137678088687	41.008296364030	334.459418828727	1156.455249465508	114.497495547548	359.966948790730	1289.417573569994	81.869021496821	334.680984202440	737.675446559336	1114.851200154107	302.716129233443	687.290127341493	860.064252304958	345.572797078553	1184.632357938164	1146.022708159709	797.794873598766	1427.317592092529	1197.680485879625	735.810464141967	
127	16.549000000000	762.883632981566	998.932041153316	582.013040250830	906.257093996123	1425.236787672184	368.456173995587	1041.942043740240	1352.821270418095	501.594131066503	1003.240019970344	1430.940987720379	687.508324016087	924.620370764016	1484.667342910776	525.087272369319	1006.591472589903	925.734193384971	652.070200849243	944.734932276484	954.356527327129	385.421341963825	1009.840318871403	716.963598072378	613.868037446108	918.261618066403	613.164042632230	678.437274271504	974.428193625865	556.080500681303	588.645468460145	958.318639249533	465.244378159198	591.838585138113	1015.151691436049	757.830207004378	405.563617917041	943.931259050751	632.030860810534	338.502985961642	1044.528103860260	567.344228876908	394.725154035077	1064.039853448491	506.490259662870	394.063823558046	1051.881926458622	436.868823946605	381.371244031756	992.412246810813	305.607529508300	327.331953576638	1084.373516076556	209.701567413014	380.357610066975	910.503997390902	383.377836484394	598.040487749181	822.818131542001	292.584748530031	660.798463699818	839.208059461458	195.571544988424	590.846955590777	677.221815822740	45.266141845585	556.810148625104	848.413761667938	94.876911415338	596.314920387823	758.109038475175	37.212195384823	633.395033648537	966.643273507916	40.184722152222	629.498362092371	1002.991880912035	35.997495604967	413.989732886217	1078.213777037175	39.523264439481	334.905065992109	1152.671460527074	110.625523113811	360.785356427840	1284.701411408637	74.333738259871	335.066118387030	740.249380987908	1111.804660007624	300.111792291150	690.660515514429	856.849442409984	343.255561355769	1187.355677708533	1147.217495025252	794.104653459821	1428.757261240895	1203.060039271698	730.557946536436	
